<svg xmlns="http://www.w3.org/2000/svg" viewBox="0 0 64 64" role="img" aria-label="SpaceX Mission Control">
  <defs>
    <linearGradient id="bg" x1="0" y1="0" x2="1" y2="1">
      <stop offset="0" stop-color="#0f1729"/>
      <stop offset="1" stop-color="#09101d"/>
    </linearGradient>
    <linearGradient id="flame" x1="0" y1="0" x2="0" y2="1">
      <stop offset="0" stop-color="#ffd166"/>
      <stop offset="1" stop-color="#ff808e"/>
    </linearGradient>
  </defs>
  <rect width="64" height="64" rx="14" fill="url(#bg)"/>
  <circle cx="48" cy="16" r="1.6" fill="#73b6ff"/>
  <circle cx="14" cy="20" r="1.2" fill="#9d7dff"/>
  <circle cx="52" cy="40" r="1.2" fill="#e8edf8"/>
  <circle cx="16" cy="46" r="1.4" fill="#73b6ff"/>
  <path d="M32 10c7 4 11 12 11 22 0 4-1 7-3 10l-5-3h-6l-5 3c-2-3-3-6-3-10 0-10 4-18 11-22z" fill="#e8edf8"/>
  <circle cx="32" cy="26" r="4" fill="#73b6ff"/>
  <path d="M29 42h6l-3 9z" fill="url(#flame)"/>
</svg>
