<svg xmlns="http://www.w3.org/2000/svg" viewBox="0 0 400 225" role="img" aria-label="Orbital launch illustration">
  <defs>
    <linearGradient id="sky" x1="0" y1="0" x2="0" y2="1">
      <stop offset="0" stop-color="#0f1729"/>
      <stop offset="1" stop-color="#09101d"/>
    </linearGradient>
    <linearGradient id="trail" x1="0" y1="1" x2="0" y2="0">
      <stop offset="0" stop-color="#ffd166"/>
      <stop offset="1" stop-color="#ff808e"/>
    </linearGradient>
  </defs>
  <rect width="400" height="225" fill="url(#sky)"/>
  <circle cx="60" cy="40" r="1.6" fill="#73b6ff"/>
  <circle cx="330" cy="36" r="1.4" fill="#9d7dff"/>
  <circle cx="120" cy="28" r="1.1" fill="#e8edf8"/>
  <circle cx="280" cy="64" r="1.2" fill="#73b6ff"/>
  <circle cx="200" cy="20" r="1" fill="#e8edf8"/>
  <path d="M232 60a44 44 0 0 1 -132 88" fill="none" stroke="#73b6ff" stroke-opacity="0.35" stroke-width="2" stroke-dasharray="5 7"/>
  <g transform="rotate(28 200 150)">
    <path d="M200 96c10 6 16 18 16 34 0 7-2 12-5 17h-22c-3-5-5-10-5-17 0-16 6-28 16-34z" fill="#e8edf8"/>
    <circle cx="200" cy="120" r="5" fill="#73b6ff"/>
    <path d="M192 150h16c2 6 4 14 4 22h-24c0-8 2-16 4-22z" fill="url(#trail)"/>
  </g>
  <rect x="0" y="200" width="400" height="25" fill="#0b1323"/>
</svg>
