<svg xmlns="http://www.w3.org/2000/svg" viewBox="0 0 400 225" role="img" aria-label="Suborbital flight illustration">
  <defs>
    <linearGradient id="sky2" x1="0" y1="0" x2="0" y2="1">
      <stop offset="0" stop-color="#111f38"/>
      <stop offset="1" stop-color="#09101d"/>
    </linearGradient>
    <linearGradient id="trail2" x1="0" y1="1" x2="0" y2="0">
      <stop offset="0" stop-color="#ffd166"/>
      <stop offset="1" stop-color="#ff808e"/>
    </linearGradient>
  </defs>
  <rect width="400" height="225" fill="url(#sky2)"/>
  <circle cx="70" cy="44" r="1.5" fill="#73b6ff"/>
  <circle cx="320" cy="40" r="1.3" fill="#9d7dff"/>
  <circle cx="160" cy="26" r="1.1" fill="#e8edf8"/>
  <circle cx="250" cy="58" r="1.2" fill="#73b6ff"/>
  <path d="M120 200 Q200 30 280 200" fill="none" stroke="#9d7dff" stroke-opacity="0.4" stroke-width="2" stroke-dasharray="4 8"/>
  <g transform="translate(196 78)">
    <path d="M4 0c7 5 11 14 11 27 0 6-1 10-3 14H-4c-2-4-3-8-3-14C-7 14-3 5 4 0z" fill="#e8edf8"/>
    <circle cx="4" cy="20" r="4" fill="#73b6ff"/>
    <path d="M-2 41h12c1 5 2 11 2 16H-4c0-5 1-11 2-16z" fill="url(#trail2)"/>
  </g>
  <rect x="0" y="200" width="400" height="25" fill="#0b1323"/>
</svg>
